<?xml version="1.0" encoding="utf-8"?>
<!-- Generator: Adobe Illustrator 24.0.2, SVG Export Plug-In . SVG Version: 6.00 Build 0)  -->
<svg version="1.1" id="Layer_1" xmlns="http://www.w3.org/2000/svg" xmlns:xlink="http://www.w3.org/1999/xlink" x="0px" y="0px"
	 viewBox="0 0 48 48" style="enable-background:new 0 0 48 48;" xml:space="preserve">
<style type="text/css">
	.st0{fill:#E8EAED;}
</style>
<path class="st0" d="M12,28h15.6v-3H12V28z M12,21.5h24v-3H12V21.5z M12,15h24v-3H12V15z M4,44V7c0-0.8,0.3-1.5,0.9-2.1S6.2,4,7,4
	h34c0.8,0,1.5,0.3,2.1,0.9C43.7,5.5,44,6.2,44,7v26c0,0.8-0.3,1.5-0.9,2.1C42.5,35.7,41.8,36,41,36H12L4,44z M10.7,33H41V7H7v30
	L10.7,33z M7,33V7V33z"/>
</svg>
